<?xml version="1.0" encoding="utf-8"?>
<!-- Generator: Adobe Illustrator 22.1.0, SVG Export Plug-In . SVG Version: 6.00 Build 0)  -->
<svg version="1.1" id="Layer_1" xmlns="http://www.w3.org/2000/svg" xmlns:xlink="http://www.w3.org/1999/xlink" x="0px" y="0px"
	 viewBox="0 0 1200 400" style="enable-background:new 0 0 1200 400;" xml:space="preserve">
<style type="text/css">
	.st0{enable-background:new    ;}
	.st1{fill:#FFFFFF;}
</style>
<g class="st0">
	<path class="st1" d="M445.6,223c4.6,2.9,11.4,5.2,18.6,5.2c10.6,0,16.8-5.6,16.8-13.7c0-7.5-4.3-11.8-15.1-16
		c-13.1-4.6-21.2-11.4-21.2-22.8c0-12.5,10.4-21.8,26-21.8c8.2,0,14.2,1.9,17.8,3.9l-2.9,8.5c-2.6-1.4-8-3.8-15.3-3.8
		c-11,0-15.1,6.6-15.1,12c0,7.5,4.9,11.2,16,15.5c13.6,5.2,20.5,11.8,20.5,23.6c0,12.4-9.2,23.1-28.1,23.1c-7.7,0-16.2-2.3-20.5-5.1
		L445.6,223z"/>
	<path class="st1" d="M505.8,156.2c5-0.8,11.6-1.6,19.9-1.6c10.3,0,17.8,2.4,22.5,6.7c4.4,3.8,7,9.7,7,16.8c0,7.3-2.1,13-6.2,17.2
		c-5.5,5.8-14.4,8.8-24.6,8.8c-3.1,0-6-0.1-8.3-0.7v32.2h-10.4V156.2z M516.1,195c2.3,0.6,5.1,0.8,8.6,0.8
		c12.5,0,20.1-6.1,20.1-17.2c0-10.6-7.5-15.7-19-15.7c-4.5,0-8,0.4-9.8,0.8V195z"/>
	<path class="st1" d="M637.9,194.6c0,27.7-16.8,42.3-37.3,42.3c-21.2,0-36.1-16.5-36.1-40.8c0-25.5,15.9-42.2,37.3-42.2
		C623.7,154,637.9,170.8,637.9,194.6z M575.5,195.9c0,17.2,9.3,32.5,25.6,32.5c16.5,0,25.7-15.1,25.7-33.4c0-16-8.3-32.7-25.6-32.7
		C584.1,162.4,575.5,178.3,575.5,195.9z"/>
	<path class="st1" d="M651.3,156.4c5.2-1.1,12.8-1.7,19.9-1.7c11.1,0,18.2,2,23.2,6.6c4.1,3.6,6.3,9.1,6.3,15.3
		c0,10.6-6.7,17.6-15.1,20.5v0.4c6.2,2.1,9.9,7.9,11.8,16.2c2.6,11.2,4.5,19,6.2,22.1h-10.7c-1.3-2.3-3.1-9.2-5.4-19.2
		c-2.4-11.1-6.7-15.3-16.1-15.6h-9.8v34.8h-10.4V156.4z M661.7,193h10.6c11.1,0,18.1-6.1,18.1-15.3c0-10.4-7.5-14.9-18.5-15
		c-5,0-8.6,0.5-10.3,1V193z"/>
	<path class="st1" d="M731.8,164.1h-24.4v-8.8h59.5v8.8h-24.6v71.5h-10.5V164.1z"/>
	<path class="st1" d="M779.8,210.4l-8.3,25.3h-10.7l27.3-80.4h12.5l27.4,80.4h-11.1l-8.6-25.3H779.8z M806.2,202.3l-7.9-23.1
		c-1.8-5.2-3-10-4.2-14.7h-0.2c-1.2,4.8-2.5,9.7-4.1,14.5l-7.9,23.2H806.2z"/>
	<path class="st1" d="M894.2,233c-3.8,1.9-11.4,3.8-21.2,3.8c-22.7,0-39.7-14.3-39.7-40.7c0-25.2,17-42.2,42-42.2
		c10,0,16.3,2.1,19.1,3.6l-2.5,8.5c-3.9-1.9-9.5-3.3-16.2-3.3c-18.8,0-31.4,12-31.4,33.1c0,19.7,11.3,32.3,30.9,32.3
		c6.3,0,12.8-1.3,16.9-3.3L894.2,233z"/>
	<path class="st1" d="M917.5,155.3v47.6c0,18,8,25.6,18.7,25.6c11.9,0,19.6-7.9,19.6-25.6v-47.6h10.5v46.9c0,24.7-13,34.8-30.4,34.8
		c-16.5,0-28.8-9.4-28.8-34.3v-47.3H917.5z"/>
	<path class="st1" d="M982.9,223c4.7,2.9,11.4,5.2,18.6,5.2c10.6,0,16.8-5.6,16.8-13.7c0-7.5-4.3-11.8-15.1-16
		c-13.1-4.6-21.2-11.4-21.2-22.8c0-12.5,10.4-21.8,26-21.8c8.2,0,14.2,1.9,17.8,3.9l-2.9,8.5c-2.6-1.4-8-3.8-15.3-3.8
		c-11,0-15.1,6.6-15.1,12c0,7.5,4.9,11.2,16,15.5c13.6,5.2,20.5,11.8,20.5,23.6c0,12.4-9.2,23.1-28.1,23.1c-7.7,0-16.2-2.3-20.5-5.1
		L982.9,223z"/>
</g>
<g>
	<path class="st1" d="M162.9,41c-5.1,12-7.9,26-7.9,41c0,43.4,24.3,78.8,54.2,78.8s54.2-35.3,54.2-78.8c0-15-2.9-29-7.9-41
		c-14.6-4.4-30.2-6.8-46.3-6.8S177.6,36.6,162.9,41z"/>
	<path class="st1" d="M322.8,97.7c-1.4-9.3-6-18.9-14-28.9C297.6,60,285.4,52.6,272.2,47c3.3,10.8,5.1,22.6,5.1,35
		c0,51-30.5,92.5-68,92.5s-68-41.5-68-92.5c0-12.4,1.8-24.2,5.1-35c-18.1,7.7-34.3,18.6-48.3,32c-3.7,6.3-6,12.5-6.9,18.6
		c-3.4,23.4,13.6,45,33.2,70.1c24.6,31.4,53.4,68.1,49.1,119.5c11.5,2.8,23.4,4.3,35.7,4.3c10.7,0,21.2-1.1,31.2-3.3
		c-4.7-51.9,24.3-88.9,49-120.5C309.2,142.7,326.1,121.1,322.8,97.7z"/>
	<path class="st1" d="M159.9,283.2c2.4-44.7-23-77.2-46.3-107C94.8,152.4,77,129.7,77,103.9c-9.1,13.2-16.2,27.8-21,43.4
		C61,210.7,103,263.5,159.9,283.2z"/>
	<path class="st1" d="M255.9,298.6c2.5,13.5,7.5,28,15.7,43.8c57.6-24.3,98.1-81.4,98.1-147.8c0-3.2-0.2-6.5-0.3-9.7
		C352.8,239.6,309.9,282.6,255.9,298.6z"/>
	<path class="st1" d="M242.4,301.9c-10.8,2.2-21.8,3.4-33.2,3.4c-12.9,0-25.5-1.5-37.6-4.3c-2.6,13.9-7.6,28.8-15.7,44.9
		c16.7,5.9,34.7,9.1,53.4,9.1c17.3,0,33.9-2.7,49.4-7.8C250.4,331,245.2,316,242.4,301.9z"/>
	<path class="st1" d="M158.3,297.3c-52-16.9-92.9-59.1-109.1-112.3c-0.2,3.2-0.3,6.4-0.3,9.7c0,65,38.7,120.9,94.3,146.1
		C151.1,325.1,155.9,310.6,158.3,297.3z"/>
	<path class="st1" d="M362.6,147.3c-5.7-18.5-14.6-35.4-26.1-50.3c3.5,28.6-15.7,53.3-36.2,79.3c-23.6,30.1-49.3,63-46.2,108.5
		C313.3,266.3,357.3,212.4,362.6,147.3z"/>
</g>
</svg>
