<?xml version="1.0" encoding="utf-8"?>
<!-- Generator: Adobe Illustrator 16.0.0, SVG Export Plug-In . SVG Version: 6.00 Build 0)  -->
<!DOCTYPE svg PUBLIC "-//W3C//DTD SVG 1.1//EN" "http://www.w3.org/Graphics/SVG/1.1/DTD/svg11.dtd">
<svg version="1.1" id="Layer_1" xmlns="http://www.w3.org/2000/svg" xmlns:xlink="http://www.w3.org/1999/xlink" x="0px" y="0px"
	 width="200px" height="200px" viewBox="0 0 200 200" enable-background="new 0 0 200 200" xml:space="preserve">
<g>
	<path fill="#FFFFFF" d="M76.281,23.769c-2.566,6.09-4.047,13.244-4.047,20.891c0,22.145,12.411,40.161,27.667,40.161
		s27.667-18.016,27.667-40.161c0-7.647-1.481-14.801-4.047-20.891c-7.48-2.253-15.405-3.479-23.62-3.479S83.76,21.516,76.281,23.769
		z"/>
	<path fill="#FFFFFF" d="M157.767,52.675c-0.689-4.764-3.068-9.655-7.164-14.74c-5.651-4.475-11.896-8.23-18.616-11.101
		c1.658,5.503,2.58,11.52,2.58,17.826c0,26.004-15.552,47.161-34.667,47.161c-19.115,0-34.667-21.156-34.667-47.161
		c0-6.307,0.921-12.323,2.58-17.827c-9.196,3.928-17.513,9.502-24.61,16.338c-1.891,3.234-3.059,6.396-3.509,9.503
		c-1.723,11.908,6.926,22.954,16.94,35.744c12.525,15.997,27.186,34.729,25.045,60.892c5.851,1.428,11.947,2.206,18.22,2.206
		c5.453,0,10.778-0.575,15.922-1.663c-2.391-26.449,12.391-45.328,25.004-61.436C150.841,75.628,159.489,64.583,157.767,52.675z"/>
	<path fill="#FFFFFF" d="M74.735,147.26c1.223-22.799-11.731-39.353-23.612-54.526c-9.554-12.202-18.627-23.791-18.651-36.918
		c-4.624,6.73-8.272,14.182-10.727,22.16C24.327,110.275,45.752,137.196,74.735,147.26z"/>
	<path fill="#FFFFFF" d="M123.676,155.079c1.288,6.861,3.852,14.267,8.027,22.325c29.358-12.408,49.961-41.472,49.961-75.349
		c0-1.656-0.064-3.297-0.161-4.929C173.037,124.996,151.206,146.929,123.676,155.079z"/>
	<path fill="#FFFFFF" d="M116.825,156.796c-5.473,1.127-11.133,1.721-16.925,1.721c-6.59,0-13.008-0.767-19.173-2.214
		c-1.34,7.078-3.901,14.675-8.009,22.872c8.506,2.998,17.649,4.646,27.181,4.646c8.791,0,17.25-1.403,25.186-3.971
		C120.875,171.586,118.229,163.927,116.825,156.796z"/>
	<path fill="#FFFFFF" d="M73.914,154.39c-26.489-8.647-47.38-30.149-55.617-57.273c-0.098,1.635-0.162,3.279-0.162,4.939
		c0,33.138,19.724,61.649,48.063,74.491C70.251,168.551,72.712,161.2,73.914,154.39z"/>
	<path fill="#FFFFFF" d="M178.054,77.972c-2.891-9.392-7.437-18.052-13.283-25.664c1.781,14.597-8.037,27.149-18.433,40.426
		c-12.016,15.345-25.133,32.099-23.571,55.299C152.914,138.624,175.405,111.125,178.054,77.972z"/>
</g>
</svg>
